<?xml version="1.0" encoding="UTF-8"?>
<!DOCTYPE svg PUBLIC "-//W3C//DTD SVG 1.1//EN" "http://www.w3.org/Graphics/SVG/1.1/DTD/svg11.dtd">
<svg xmlns="http://www.w3.org/2000/svg" width="421" height="426" viewBox="0 0 421 426" fill="none">
<path opacity="0.996" fill-rule="evenodd" clip-rule="evenodd" d="M97.4996 8.5C173.194 8.02129 248.861 8.52129 324.5 10C372.467 20.9672 399.967 50.8005 407 99.5C407.667 172.167 407.667 244.833 407 317.5C401.668 359.158 379.501 387.658 340.5 403C332.687 405.563 324.687 407.229 316.5 408C243.833 408.667 171.167 408.667 98.4996 408C58.1695 402.928 30.0028 381.761 13.9996 344.5C10.8942 335.745 8.89424 326.745 7.9996 317.5C7.02103 242.14 7.35437 166.807 8.9996 91.5C20.0125 43.9835 49.5125 16.3169 97.4996 8.5Z" fill="#020202"/>
<path fill-rule="evenodd" clip-rule="evenodd" d="M152.5 93.5C172.569 92.8002 192.235 95.3002 211.5 101C254.159 113.997 295.492 130.33 335.5 150C342.673 155.679 343.339 162.013 337.5 169C333.782 171.298 329.782 171.965 325.5 171C290.464 153.987 254.464 139.321 217.5 127C197.381 120.042 176.715 116.708 155.5 117C152.165 117.665 150.332 119.498 150 122.5C156.095 130.599 162.928 138.099 170.5 145C190.652 161.241 210.985 177.241 231.5 193C240.303 200.802 248.803 208.969 257 217.5C263.733 225.132 267.899 233.965 269.5 244C269.217 253.074 265.217 259.907 257.5 264.5C242.397 269.294 227.064 269.794 211.5 266C189.219 259.795 166.885 253.795 144.5 248C138.109 246.232 131.776 246.232 125.5 248C124.232 250.141 123.565 252.474 123.5 255C125.915 266.668 130.415 277.502 137 287.5C144.696 298.521 152.363 309.521 160 320.5C160.483 328.357 156.816 333.024 149 334.5C146.268 334.385 143.768 333.552 141.5 332C126.889 314.727 114.722 295.893 105 275.5C99.1432 262.503 99.1432 249.503 105 236.5C114.67 225.387 126.837 221.22 141.5 224C150.927 225.571 160.26 227.571 169.5 230C186.332 235.277 203.332 239.944 220.5 244C228.119 245.429 235.785 245.762 243.5 245C244.574 244.261 245.241 243.261 245.5 242C241.027 233.516 235.027 226.183 227.5 220C204.682 201.426 181.682 183.093 158.5 165C147.76 156.262 138.427 146.262 130.5 135C122.338 121.141 124.672 109.474 137.5 100C142.489 97.5144 147.489 95.3477 152.5 93.5Z" fill="#F4F4F4"/>
</svg>
