<?xml version="1.0" encoding="UTF-8"?>
<!DOCTYPE svg PUBLIC "-//W3C//DTD SVG 1.1//EN" "http://www.w3.org/Graphics/SVG/1.1/DTD/svg11.dtd">
<svg xmlns="http://www.w3.org/2000/svg" version="1.1" width="421px" height="426px" style="shape-rendering:geometricPrecision; text-rendering:geometricPrecision; image-rendering:optimizeQuality; fill-rule:evenodd; clip-rule:evenodd" xmlns:xlink="http://www.w3.org/1999/xlink">
<g><path style="opacity:0.996" fill="#f5f5f5" d="M 97.5,8.5 C 173.194,8.02129 248.861,8.52129 324.5,10C 372.467,20.9672 399.967,50.8005 407,99.5C 407.667,172.167 407.667,244.833 407,317.5C 401.668,359.158 379.501,387.658 340.5,403C 332.687,405.563 324.687,407.229 316.5,408C 243.833,408.667 171.167,408.667 98.5,408C 58.1699,402.928 30.0032,381.761 14,344.5C 10.8946,335.745 8.89464,326.745 8,317.5C 7.02143,242.14 7.35477,166.807 9,91.5C 20.0129,43.9835 49.5129,16.3169 97.5,8.5 Z"/></g>
<g><path style="opacity:1" fill="#020202" d="M 152.5,93.5 C 172.569,92.8002 192.235,95.3002 211.5,101C 254.159,113.997 295.492,130.33 335.5,150C 342.673,155.679 343.339,162.013 337.5,169C 333.782,171.298 329.782,171.965 325.5,171C 290.464,153.987 254.464,139.321 217.5,127C 197.381,120.042 176.715,116.708 155.5,117C 152.165,117.665 150.332,119.498 150,122.5C 156.095,130.599 162.928,138.099 170.5,145C 190.652,161.241 210.985,177.241 231.5,193C 240.303,200.802 248.803,208.969 257,217.5C 263.733,225.132 267.899,233.965 269.5,244C 269.217,253.074 265.217,259.907 257.5,264.5C 242.397,269.294 227.064,269.794 211.5,266C 189.219,259.795 166.885,253.795 144.5,248C 138.109,246.232 131.776,246.232 125.5,248C 124.232,250.141 123.565,252.474 123.5,255C 125.915,266.668 130.415,277.502 137,287.5C 144.696,298.521 152.363,309.521 160,320.5C 160.483,328.357 156.816,333.024 149,334.5C 146.268,334.385 143.768,333.552 141.5,332C 126.889,314.727 114.722,295.893 105,275.5C 99.1433,262.503 99.1433,249.503 105,236.5C 114.67,225.387 126.837,221.22 141.5,224C 150.927,225.571 160.26,227.571 169.5,230C 186.332,235.277 203.332,239.944 220.5,244C 228.119,245.429 235.785,245.762 243.5,245C 244.574,244.261 245.241,243.261 245.5,242C 241.027,233.516 235.027,226.183 227.5,220C 204.682,201.426 181.682,183.093 158.5,165C 147.76,156.262 138.427,146.262 130.5,135C 122.338,121.141 124.672,109.474 137.5,100C 142.489,97.5144 147.489,95.3477 152.5,93.5 Z"/></g>
</svg>
