<svg width="20" height="20" viewBox="0 0 20 20" fill="none" xmlns="http://www.w3.org/2000/svg">
<g clip-path="url(#clip0_66_2)">
<g clip-path="url(#clip1_66_2)">
<path fill-rule="evenodd" clip-rule="evenodd" d="M11.4223 1.02164C12.1178 0.326119 13.2454 0.326119 13.941 1.02164L18.9783 6.05906C19.6739 6.75457 19.6739 7.88224 18.9783 8.57776L8.5777 18.9784C7.88215 19.6739 6.75461 19.6738 6.05907 18.9783L1.02164 13.9409C0.326121 13.2454 0.326121 12.1178 1.02164 11.4223L11.4223 1.02164ZM12.2618 1.8612C12.4937 1.62937 12.8695 1.62937 13.1014 1.8612L18.1388 6.89862C18.3707 7.13047 18.3707 7.50635 18.1388 7.73819L10.5807 15.2964L4.70365 9.41937L12.2618 1.8612ZM3.86408 10.2589L9.74108 16.136L7.73822 18.1387C7.50637 18.3706 7.13048 18.3706 6.89864 18.1387L1.86121 13.1014C1.62937 12.8695 1.62937 12.4936 1.86121 12.2618L3.86408 10.2589Z" fill="black"/>
<path d="M18.9783 8.57776C19.6739 7.88224 19.6739 6.75457 18.9783 6.05906L13.941 1.02164C13.2454 0.326119 12.1178 0.326119 11.4223 1.02164L1.02164 11.4223C0.326121 12.1178 0.326121 13.2454 1.02164 13.9409L6.05907 18.9783C6.75461 19.6738 7.88215 19.6739 8.5777 18.9784L18.9783 8.57776ZM18.9783 8.57776L9.24593 18.3102M13.1014 1.8612C12.8695 1.62937 12.4937 1.62937 12.2618 1.8612L4.70365 9.41937L10.5807 15.2964L18.1388 7.73819C18.3707 7.50635 18.3707 7.13047 18.1388 6.89862L13.1014 1.8612ZM9.74108 16.136L3.86408 10.2589L1.86121 12.2618C1.62937 12.4936 1.62937 12.8695 1.86121 13.1014L6.89864 18.1387C7.13048 18.3706 7.50637 18.3706 7.73822 18.1387L9.74108 16.136Z" stroke="black" stroke-width="0.27"/>
<path d="M12.262 1.86121C12.4939 1.62937 12.8697 1.62937 13.1016 1.86121L18.1389 6.89862C18.3708 7.13047 18.3708 7.50636 18.1389 7.73819L10.5809 15.2964L4.70382 9.41937L12.262 1.86121Z" fill="white"/>
<path d="M3.86424 10.2589L9.74125 16.136L7.73838 18.1388C7.50653 18.3706 7.13065 18.3706 6.89881 18.1388L1.86138 13.1014C1.62954 12.8695 1.62954 12.4936 1.86138 12.2618L3.86424 10.2589Z" fill="white"/>
</g>
</g>
<defs>
<clipPath id="clip0_66_2">
<rect width="20" height="20" fill="white"/>
</clipPath>
<clipPath id="clip1_66_2">
<rect width="20" height="20" fill="white"/>
</clipPath>
</defs>
</svg>
