<svg width="20" height="20" viewBox="0 0 20 20" fill="none" xmlns="http://www.w3.org/2000/svg">
<g clip-path="url(#clip0_65_2)">
<path d="M1.05424 20C1.11674 20 1.17923 19.9938 1.24172 19.9844L6.49745 19.0625C6.55995 19.05 6.61931 19.0219 6.66306 18.975L19.9086 5.72813C19.9376 5.69921 19.9606 5.66487 19.9763 5.62707C19.9919 5.58927 20 5.54874 20 5.50781C20 5.46689 19.9919 5.42636 19.9763 5.38856C19.9606 5.35075 19.9376 5.31641 19.9086 5.2875L14.7154 0.0906251C14.656 0.0312501 14.5779 0 14.4935 0C14.4092 0 14.3311 0.0312501 14.2717 0.0906251L1.02612 13.3375C0.979248 13.3844 0.951126 13.4406 0.938627 13.5031L0.0168437 18.7594C-0.0135537 18.9268 -0.00269215 19.0991 0.0484874 19.2613C0.0996669 19.4236 0.189622 19.571 0.310564 19.6906C0.516794 19.8906 0.776144 20 1.05424 20ZM3.16028 14.55L14.4935 3.21875L16.7839 5.50938L5.45068 16.8406L2.67283 17.3312L3.16028 14.55Z" fill="black"/>
<path d="M14.4936 3.21875L3.1603 14.55L2.67285 17.3312L5.4507 16.8406L16.784 5.50937L14.4936 3.21875Z" fill="white"/>
</g>
<defs>
<clipPath id="clip0_65_2">
<rect width="20" height="20" fill="white"/>
</clipPath>
</defs>
</svg>
